<svg width="778" height="169" viewBox="0 0 778 169" fill="none" xmlns="http://www.w3.org/2000/svg">
<g filter="url(#filter0_d_62_1670)">
<circle cx="189.78" cy="45.3786" r="9.70882" fill="#82E3EA"/>
</g>
<g filter="url(#filter1_d_62_1670)">
<circle cx="190.387" cy="89.0925" r="9.10202" fill="#82E3EA"/>
</g>
<g filter="url(#filter2_d_62_1670)">
<circle cx="189.78" cy="132.806" r="9.70882" fill="#82E3EA"/>
</g>
<path d="M126.78 88.8508L187.353 88.8508" stroke="#82E3EA" stroke-width="5.38586" stroke-linecap="round"/>
<path d="M189.173 45.2643H172.377C169.628 45.2643 167.088 46.7308 165.714 49.1113L144.932 85.1069C143.557 87.4875 141.017 88.954 138.269 88.954H126.395" stroke="#82E3EA" stroke-width="5.38586" stroke-linecap="round"/>
<path d="M189.173 132.977H172.394C169.636 132.977 167.089 131.501 165.718 129.108L144.928 92.8229C143.557 90.43 141.01 88.954 138.252 88.954H126.395" stroke="#82E3EA" stroke-width="5.38586" stroke-linecap="round"/>
<mask id="mask0_62_1670" style="mask-type:alpha" maskUnits="userSpaceOnUse" x="0" y="0" width="156" height="169">
<path d="M150.016 40.0092L135.012 65.3997V111.949L153.478 141.186L155.402 168.885H3.05878C-2.48096 168.885 0.750552 56.295 3.05878 0H155.402L150.016 40.0092Z" fill="#FF3838"/>
</mask>
<g mask="url(#mask0_62_1670)">
<path d="M66.6589 8.38688C84.7561 4.88755 103.506 7.71269 119.769 16.3888C136.032 25.0652 148.821 39.0666 155.992 56.047L146.778 59.9386L137.563 63.8302C132.176 51.0746 122.57 40.5569 110.353 34.0392C98.1366 27.5216 84.0514 25.3997 70.4568 28.0285C56.862 30.6573 44.5827 37.8774 35.6765 48.4796C26.7704 59.0819 21.7773 72.4224 21.5339 86.2668C21.2906 100.111 25.8116 113.619 34.3396 124.528C42.8677 135.436 54.8857 143.084 68.3796 146.189C81.8734 149.293 96.0245 147.667 108.463 141.583C120.901 135.499 130.871 125.326 136.703 112.768L145.775 116.981L154.847 121.193C147.084 137.91 133.811 151.453 117.253 159.553C100.695 167.652 81.8565 169.817 63.8933 165.684C45.9302 161.55 29.9325 151.37 18.5798 136.849C7.22715 122.327 1.20907 104.345 1.53293 85.9152C1.85689 67.4854 8.50315 49.7262 20.3591 35.6125C32.2152 21.4986 48.5614 11.8864 66.6589 8.38688ZM47.4519 68.9093C49.2984 65.6268 51.2478 66.2425 57.6081 72.2951C60.7883 75.3726 64.994 79.1684 66.8405 80.7072C68.5845 82.3486 70.1237 84.4001 70.1237 85.3234C70.1237 87.3751 52.1712 104.711 50.1189 104.712C48.2724 104.712 46.2204 100.917 47.1433 99.3781C47.5536 98.66 50.8369 95.3768 54.4275 91.9914L60.9929 85.9386L53.7097 78.5529C47.0415 71.8847 46.426 70.8585 47.4519 68.9093ZM76.6892 98.9679C77.2021 97.7369 79.4589 97.5313 89.3073 97.7365L101.413 98.0441V104.199H89.1023C78.0228 104.199 76.7919 103.994 76.4841 102.353C76.279 101.327 76.3815 99.7886 76.6892 98.9679Z" fill="url(#paint0_linear_62_1670)"/>
</g>
<path d="M264.075 20.9425C255.809 23.4758 248.742 30.9425 245.942 39.7425C244.209 45.3425 243.809 50.6758 244.075 62.6758C244.742 82.2758 247.675 89.2091 257.942 95.6091L264.342 99.6091L289.542 100.009L314.609 100.542V95.0758V89.6091H301.009C293.409 89.4758 282.742 88.9425 277.275 88.2758C268.609 87.3425 266.875 86.6758 263.675 83.0758C258.609 77.3425 256.875 69.6091 257.675 56.0091C258.342 42.9425 260.875 37.2091 267.409 33.3425C270.742 31.3425 275.409 30.8091 291.409 30.4091C302.342 30.1425 311.675 29.7425 312.342 29.7425C312.875 29.6091 313.275 27.2091 313.275 24.2758V18.9425L291.675 19.0758C277.275 19.0758 267.942 19.7425 264.075 20.9425Z" fill="#EAE3D4"/>
<path d="M746.609 31.4759V40.1425L742.342 40.5425C738.475 40.9425 737.942 41.4759 737.542 45.2092C737.142 49.0759 737.409 49.4759 741.542 49.8759L745.942 50.2759L746.609 70.4092C747.142 88.2759 747.542 91.0759 749.942 93.6092C754.342 98.5425 759.275 100.276 768.609 100.276H777.275V94.9425V89.6092H770.875C767.275 89.6092 763.275 88.6759 761.542 87.4759C758.742 85.6092 758.609 84.5425 758.609 67.4759V49.6092H767.275H775.942V44.9425V40.2759H767.275H758.609V31.6092V22.9425H752.609H746.609V31.4759Z" fill="#EAE3D4"/>
<path d="M336.475 41.7426C330.875 43.3426 324.475 50.8092 322.475 57.8759C320.075 66.8092 321.542 82.6759 325.275 89.3426C330.475 98.6759 336.342 100.543 357.009 100.009C373.542 99.6092 374.342 99.4759 379.142 95.7426C387.142 89.7426 390.609 77.6092 388.742 62.4092C387.542 53.0759 383.542 47.0759 375.942 43.2092C370.875 40.6759 368.075 40.2759 355.275 40.4092C347.275 40.4092 338.742 41.0759 336.475 41.7426ZM367.142 51.4759C374.342 54.4092 375.942 58.0092 375.942 70.5426C375.942 80.8092 375.675 81.8759 372.209 85.7426C368.609 89.7426 367.675 90.0092 357.675 90.6759C349.409 91.0759 345.942 90.8092 342.209 88.9426C335.409 85.7426 332.342 77.0759 333.809 65.0759C334.875 57.2092 339.009 51.6092 344.342 50.5426C351.009 49.2092 363.009 49.7426 367.142 51.4759Z" fill="#EAE3D4"/>
<path d="M391.009 42.5425C392.875 48.8092 415.009 97.2092 416.742 98.9425C417.942 100.143 421.142 100.943 424.742 100.943C431.809 100.943 434.875 98.0092 439.142 87.3425C440.609 83.7425 445.542 72.4092 450.209 62.0092C454.742 51.4758 458.609 42.2758 458.609 41.6092C458.609 40.6758 456.209 40.2758 452.342 40.5425L446.209 40.9425L440.342 54.9425C437.142 62.6758 432.609 73.6092 430.342 79.3425C428.075 85.0758 425.675 89.4758 425.009 89.3425C424.209 89.0758 419.142 78.1425 413.542 64.9425L403.275 40.9425L396.742 40.5425C391.009 40.1425 390.342 40.4092 391.009 42.5425Z" fill="#EAE3D4"/>
<path d="M473.409 42.6758C464.742 46.9425 463.275 50.5425 462.875 68.5425C462.342 87.7425 463.942 92.9425 471.942 97.4758C476.742 100.142 478.609 100.276 498.875 100.009L520.609 99.6092L521.009 95.2091C521.409 91.3425 521.142 90.9425 517.675 90.8091C481.409 89.8758 480.742 89.7425 477.542 86.1425C475.409 83.7425 474.609 81.3425 474.875 78.4092L475.275 74.2758L496.875 73.6091C522.075 72.8091 522.742 72.5425 523.542 61.3425C524.209 52.5425 521.142 46.1425 514.609 42.6758C508.075 39.2091 480.075 39.2091 473.409 42.6758ZM505.942 50.9425C510.075 52.5425 512.475 58.0091 510.609 61.7425C509.275 64.0091 507.675 64.2758 491.942 64.2758C474.742 64.2758 474.609 64.2758 474.609 61.2091C474.609 57.3425 478.075 52.4091 481.809 50.9425C485.675 49.3425 501.675 49.3425 505.942 50.9425Z" fill="#EAE3D4"/>
<path d="M541.942 41.4759C540.475 42.1425 538.075 44.0092 536.609 45.6092C534.075 48.2759 533.942 50.4092 533.942 74.1425V99.6092H539.942H545.942L546.609 75.6092L547.275 51.6092L551.275 50.8092C557.942 49.3425 569.942 49.4759 574.475 51.0759C577.009 52.0092 579.275 54.0092 580.075 55.8759C580.742 57.6092 581.275 68.4092 581.275 79.7425V100.276H587.275H593.275V77.2092C593.275 42.4092 591.409 40.2759 561.942 40.4092C552.475 40.4092 543.409 40.9425 541.942 41.4759Z" fill="#EAE3D4"/>
<path d="M609.275 44.8092V49.3425L627.275 49.8759C646.875 50.2759 648.342 50.8092 649.809 58.4092L650.742 62.5425L632.075 63.2092C611.142 64.0092 607.809 65.2092 604.475 72.9425C600.475 82.6759 603.275 94.5425 610.609 98.2759C614.075 100.143 618.342 100.409 635.409 100.009C663.142 99.4759 661.942 100.676 661.942 72.2759C661.942 52.9425 661.675 50.8092 659.142 47.3425C654.475 40.9425 651.542 40.2759 629.675 40.2759H609.275V44.8092ZM650.342 79.6092C651.009 88.6759 648.742 90.1425 634.742 90.8092C619.542 91.3425 615.942 89.6092 615.942 81.8759C615.942 74.0092 617.275 73.4759 634.609 73.8759L649.942 74.2759L650.342 79.6092Z" fill="#EAE3D4"/>
<path d="M678.475 42.2759C672.875 45.3425 671.942 50.5425 671.942 76.4092V100.276H677.942H683.942V77.6092C683.942 49.7425 683.942 49.6092 699.142 49.6092C711.942 49.6092 716.742 51.3425 718.475 56.5425C719.275 58.8092 719.942 69.6092 719.942 80.4092V100.276H725.942H731.942V77.2092C731.942 42.2759 730.209 40.2759 699.942 40.2759C686.875 40.4092 681.009 40.9425 678.475 42.2759Z" fill="#EAE3D4"/>
<path d="M245.575 116.913V114.323H263.355V116.913H255.655V139.943H253.065V116.913H245.575ZM267.034 130.563C267.034 128.509 267.174 126.864 267.454 125.628C267.734 124.368 268.236 123.423 268.959 122.793C269.706 122.139 270.523 121.719 271.409 121.533C272.319 121.323 273.568 121.218 275.154 121.218C276.438 121.218 277.441 121.276 278.164 121.393C278.888 121.509 279.599 121.778 280.299 122.198C280.999 122.618 281.501 123.283 281.804 124.193C282.108 125.103 282.259 126.304 282.259 127.798C282.259 130.644 280.661 132.068 277.464 132.068H269.624C269.624 134.238 269.869 135.696 270.359 136.443C270.849 137.166 271.783 137.528 273.159 137.528C273.323 137.528 273.568 137.528 273.894 137.528C274.221 137.528 274.466 137.528 274.629 137.528C277.896 137.528 280.323 137.411 281.909 137.178V139.138C279.599 139.791 276.683 140.118 273.159 140.118C270.803 140.118 269.193 139.441 268.329 138.088C267.466 136.734 267.034 134.226 267.034 130.563ZM269.624 129.513H277.464C278.934 129.513 279.669 128.941 279.669 127.798C279.669 126.001 279.401 124.893 278.864 124.473C278.351 124.029 277.126 123.808 275.189 123.808C274.373 123.808 273.766 123.819 273.369 123.843C272.996 123.866 272.541 123.936 272.004 124.053C271.491 124.146 271.118 124.309 270.884 124.543C270.674 124.776 270.441 125.103 270.184 125.523C269.951 125.943 269.799 126.479 269.729 127.133C269.659 127.786 269.624 128.579 269.624 129.513ZM286.823 139.943V121.358H288.643L289.413 123.703C289.53 123.633 289.821 123.458 290.288 123.178C290.778 122.898 291.093 122.723 291.233 122.653C291.396 122.559 291.688 122.408 292.108 122.198C292.528 121.988 292.855 121.848 293.088 121.778C293.345 121.684 293.66 121.579 294.033 121.463C294.43 121.346 294.815 121.264 295.188 121.218C295.561 121.171 295.946 121.148 296.343 121.148C297.696 121.148 298.56 121.241 298.933 121.428V123.983C298.373 123.843 297.51 123.773 296.343 123.773C295.456 123.773 294.605 123.866 293.788 124.053C292.995 124.239 292.353 124.438 291.863 124.648C291.396 124.858 290.58 125.243 289.413 125.803V139.943H286.823ZM302.775 139.943V121.358H304.595L305.365 123.598C305.505 123.504 305.785 123.341 306.205 123.108C306.649 122.851 306.952 122.676 307.115 122.583C307.302 122.466 307.582 122.314 307.955 122.128C308.352 121.941 308.667 121.813 308.9 121.743C309.157 121.649 309.46 121.544 309.81 121.428C310.16 121.311 310.51 121.241 310.86 121.218C311.234 121.171 311.607 121.148 311.98 121.148C313.147 121.148 314.197 121.393 315.13 121.883C316.064 122.373 316.729 123.038 317.125 123.878C319.319 122.058 321.815 121.148 324.615 121.148C326.249 121.148 327.614 121.708 328.71 122.828C329.807 123.948 330.355 125.383 330.355 127.133V139.943H327.765V127.133C327.765 126.106 327.462 125.289 326.855 124.683C326.272 124.053 325.525 123.738 324.615 123.738C323.215 123.738 322.002 123.878 320.975 124.158C319.972 124.438 318.899 124.951 317.755 125.698V127.063V139.943H315.165V127.133C315.165 126.106 314.862 125.289 314.255 124.683C313.672 124.053 312.914 123.738 311.98 123.738C311.117 123.738 310.3 123.831 309.53 124.018C308.784 124.204 308.2 124.391 307.78 124.578C307.36 124.741 306.555 125.114 305.365 125.698V139.943H302.775ZM334.921 118.348V116.458C334.921 115.874 335.201 115.583 335.761 115.583H337.511C338.047 115.583 338.316 115.874 338.316 116.458V118.348C338.316 118.884 338.047 119.153 337.511 119.153H335.761C335.201 119.153 334.921 118.884 334.921 118.348ZM335.271 139.943V121.358H337.861V139.943H335.271ZM343.225 139.943V121.358H345.045L345.815 123.528C345.885 123.504 346.142 123.364 346.585 123.108C347.028 122.828 347.297 122.664 347.39 122.618C347.507 122.571 347.763 122.443 348.16 122.233C348.557 121.999 348.837 121.859 349 121.813C349.163 121.766 349.432 121.673 349.805 121.533C350.178 121.393 350.482 121.299 350.715 121.253C350.972 121.206 351.275 121.159 351.625 121.113C351.975 121.066 352.325 121.043 352.675 121.043C354.448 121.043 355.848 121.626 356.875 122.793C357.902 123.959 358.415 125.359 358.415 126.993V139.943H355.825V126.993C355.825 125.896 355.533 125.068 354.95 124.508C354.367 123.924 353.608 123.633 352.675 123.633C351.788 123.633 350.948 123.726 350.155 123.913C349.362 124.099 348.72 124.298 348.23 124.508C347.763 124.694 346.958 125.068 345.815 125.628V139.943H343.225ZM362.613 135.533V133.398C362.613 131.974 363.021 130.843 363.838 130.003C364.678 129.163 365.821 128.743 367.268 128.743C369.578 128.743 371.491 128.743 373.008 128.743C373.638 128.743 374.128 128.743 374.478 128.743C374.851 128.743 375.038 128.743 375.038 128.743C375.038 128.066 375.038 127.494 375.038 127.028C375.038 126.934 375.038 126.853 375.038 126.783C375.038 126.713 375.038 126.654 375.038 126.608C375.038 126.538 375.038 126.491 375.038 126.468C375.038 126.421 375.038 126.398 375.038 126.398C375.038 124.484 374.081 123.528 372.168 123.528C370.068 123.528 367.081 123.668 363.208 123.948V122.058C365.565 121.404 368.586 121.054 372.273 121.008C372.296 121.008 372.331 121.008 372.378 121.008C373.918 121.008 375.178 121.463 376.158 122.373C377.138 123.259 377.628 124.601 377.628 126.398V139.943H375.703L375.038 137.703L374.513 137.948C374.186 138.111 373.743 138.321 373.183 138.578C372.623 138.811 372.016 139.056 371.363 139.313C370.71 139.546 370.01 139.744 369.263 139.908C368.516 140.071 367.851 140.153 367.268 140.153C365.938 140.153 364.83 139.744 363.943 138.928C363.056 138.111 362.613 136.979 362.613 135.533ZM365.203 135.358C365.203 136.828 365.891 137.563 367.268 137.563C368.108 137.563 369.17 137.411 370.453 137.108C371.76 136.804 372.856 136.513 373.743 136.233L375.038 135.778V130.773L367.268 131.333C366.568 131.403 366.043 131.648 365.693 132.068C365.366 132.488 365.203 133.001 365.203 133.608V135.358ZM382.513 133.328V112.538H385.103V133.328C385.103 134.751 385.266 135.743 385.593 136.303C385.919 136.839 386.421 137.189 387.098 137.353C389.011 137.843 390.049 138.088 390.213 138.088V139.943H387.133C384.053 139.943 382.513 137.738 382.513 133.328ZM405.787 135.533V133.398C405.787 131.974 406.196 130.843 407.012 130.003C407.852 129.163 408.996 128.743 410.442 128.743C412.752 128.743 414.666 128.743 416.182 128.743C416.812 128.743 417.302 128.743 417.652 128.743C418.026 128.743 418.212 128.743 418.212 128.743C418.212 128.066 418.212 127.494 418.212 127.028C418.212 126.934 418.212 126.853 418.212 126.783C418.212 126.713 418.212 126.654 418.212 126.608C418.212 126.538 418.212 126.491 418.212 126.468C418.212 126.421 418.212 126.398 418.212 126.398C418.212 124.484 417.256 123.528 415.342 123.528C413.242 123.528 410.256 123.668 406.382 123.948V122.058C408.739 121.404 411.761 121.054 415.447 121.008C415.471 121.008 415.506 121.008 415.552 121.008C417.092 121.008 418.352 121.463 419.332 122.373C420.312 123.259 420.802 124.601 420.802 126.398V139.943H418.877L418.212 137.703L417.687 137.948C417.361 138.111 416.917 138.321 416.357 138.578C415.797 138.811 415.191 139.056 414.537 139.313C413.884 139.546 413.184 139.744 412.437 139.908C411.691 140.071 411.026 140.153 410.442 140.153C409.112 140.153 408.004 139.744 407.117 138.928C406.231 138.111 405.787 136.979 405.787 135.533ZM408.377 135.358C408.377 136.828 409.066 137.563 410.442 137.563C411.282 137.563 412.344 137.411 413.627 137.108C414.934 136.804 416.031 136.513 416.917 136.233L418.212 135.778V130.773L410.442 131.333C409.742 131.403 409.217 131.648 408.867 132.068C408.541 132.488 408.377 133.001 408.377 133.608V135.358ZM424.987 127.413V125.803C424.987 124.286 425.36 123.143 426.107 122.373C426.854 121.579 428.09 121.183 429.817 121.183C432.034 121.183 435.079 121.369 438.952 121.743V123.738H429.817C429.28 123.738 428.849 123.784 428.522 123.878C428.195 123.971 427.962 124.134 427.822 124.368C427.705 124.578 427.635 124.776 427.612 124.963C427.589 125.149 427.577 125.429 427.577 125.803V127.413C427.577 127.879 427.624 128.253 427.717 128.533C427.834 128.813 428.009 129.011 428.242 129.128C428.475 129.244 428.697 129.326 428.907 129.373C429.117 129.396 429.42 129.408 429.817 129.408H435.347C436.817 129.408 437.937 129.828 438.707 130.668C439.5 131.484 439.897 132.569 439.897 133.923V135.638C439.897 137.364 439.477 138.543 438.637 139.173C437.797 139.803 436.7 140.118 435.347 140.118C433.177 140.118 429.98 139.896 425.757 139.453V137.528H435.347C435.394 137.528 435.44 137.528 435.487 137.528C435.65 137.528 435.814 137.516 435.977 137.493C436.14 137.446 436.327 137.364 436.537 137.248C436.77 137.131 436.957 136.933 437.097 136.653C437.237 136.373 437.307 136.034 437.307 135.638V133.923C437.307 133.269 437.155 132.791 436.852 132.488C436.572 132.161 436.07 131.998 435.347 131.998H429.817C428.114 131.998 426.877 131.671 426.107 131.018C425.36 130.364 424.987 129.163 424.987 127.413ZM456.174 135.533V133.398C456.174 131.974 456.582 130.843 457.399 130.003C458.239 129.163 459.382 128.743 460.829 128.743C463.139 128.743 465.052 128.743 466.569 128.743C467.199 128.743 467.689 128.743 468.039 128.743C468.412 128.743 468.599 128.743 468.599 128.743C468.599 128.066 468.599 127.494 468.599 127.028C468.599 126.934 468.599 126.853 468.599 126.783C468.599 126.713 468.599 126.654 468.599 126.608C468.599 126.538 468.599 126.491 468.599 126.468C468.599 126.421 468.599 126.398 468.599 126.398C468.599 124.484 467.642 123.528 465.729 123.528C463.629 123.528 460.642 123.668 456.769 123.948V122.058C459.126 121.404 462.147 121.054 465.834 121.008C465.857 121.008 465.892 121.008 465.939 121.008C467.479 121.008 468.739 121.463 469.719 122.373C470.699 123.259 471.189 124.601 471.189 126.398V139.943H469.264L468.599 137.703L468.074 137.948C467.747 138.111 467.304 138.321 466.744 138.578C466.184 138.811 465.577 139.056 464.924 139.313C464.271 139.546 463.571 139.744 462.824 139.908C462.077 140.071 461.412 140.153 460.829 140.153C459.499 140.153 458.391 139.744 457.504 138.928C456.617 138.111 456.174 136.979 456.174 135.533ZM458.764 135.358C458.764 136.828 459.452 137.563 460.829 137.563C461.669 137.563 462.731 137.411 464.014 137.108C465.321 136.804 466.417 136.513 467.304 136.233L468.599 135.778V130.773L460.829 131.333C460.129 131.403 459.604 131.648 459.254 132.068C458.927 132.488 458.764 133.001 458.764 133.608V135.358ZM476.073 139.943V121.358H477.893L478.663 123.528C478.733 123.504 478.99 123.364 479.433 123.108C479.877 122.828 480.145 122.664 480.238 122.618C480.355 122.571 480.612 122.443 481.008 122.233C481.405 121.999 481.685 121.859 481.848 121.813C482.012 121.766 482.28 121.673 482.653 121.533C483.027 121.393 483.33 121.299 483.563 121.253C483.82 121.206 484.123 121.159 484.473 121.113C484.823 121.066 485.173 121.043 485.523 121.043C487.297 121.043 488.697 121.626 489.723 122.793C490.75 123.959 491.263 125.359 491.263 126.993V139.943H488.673V126.993C488.673 125.896 488.382 125.068 487.798 124.508C487.215 123.924 486.457 123.633 485.523 123.633C484.637 123.633 483.797 123.726 483.003 123.913C482.21 124.099 481.568 124.298 481.078 124.508C480.612 124.694 479.807 125.068 478.663 125.628V139.943H476.073ZM508.068 139.943L517.483 114.323H520.073L529.068 139.943H525.988L523.783 132.803H513.563L511.253 139.943H508.068ZM514.508 130.213H522.873L518.743 118.278L514.508 130.213ZM533.79 139.943V114.323H536.38V139.943H533.79ZM553.708 130.913C553.708 127.156 554.303 124.601 555.493 123.248C556.683 121.871 558.818 121.183 561.898 121.183C565.024 121.183 567.171 121.883 568.338 123.283C569.504 124.659 570.088 127.203 570.088 130.913C570.088 134.389 569.504 136.793 568.338 138.123C567.171 139.453 565.024 140.118 561.898 140.118C558.818 140.118 556.683 139.429 555.493 138.053C554.303 136.676 553.708 134.296 553.708 130.913ZM556.298 130.913C556.298 132.429 556.403 133.643 556.613 134.553C556.846 135.463 557.231 136.128 557.768 136.548C558.328 136.968 558.888 137.236 559.448 137.353C560.031 137.469 560.848 137.528 561.898 137.528C562.971 137.528 563.799 137.469 564.383 137.353C564.989 137.236 565.549 136.968 566.063 136.548C566.599 136.104 566.973 135.439 567.183 134.553C567.393 133.643 567.498 132.429 567.498 130.913C567.498 129.256 567.404 127.949 567.218 126.993C567.054 126.036 566.716 125.324 566.203 124.858C565.689 124.368 565.129 124.064 564.523 123.948C563.939 123.831 563.064 123.773 561.898 123.773C561.011 123.773 560.311 123.808 559.798 123.878C559.284 123.948 558.771 124.111 558.258 124.368C557.744 124.624 557.359 125.009 557.103 125.523C556.869 126.036 556.671 126.736 556.508 127.623C556.368 128.486 556.298 129.583 556.298 130.913ZM575 139.943V121.358H576.82L577.59 123.703C577.707 123.633 577.999 123.458 578.465 123.178C578.955 122.898 579.27 122.723 579.41 122.653C579.574 122.559 579.865 122.408 580.285 122.198C580.705 121.988 581.032 121.848 581.265 121.778C581.522 121.684 581.837 121.579 582.21 121.463C582.607 121.346 582.992 121.264 583.365 121.218C583.739 121.171 584.124 121.148 584.52 121.148C585.874 121.148 586.737 121.241 587.11 121.428V123.983C586.55 123.843 585.687 123.773 584.52 123.773C583.634 123.773 582.782 123.866 581.965 124.053C581.172 124.239 580.53 124.438 580.04 124.648C579.574 124.858 578.757 125.243 577.59 125.803V139.943H575ZM590.603 130.633C590.603 128.673 590.743 127.051 591.023 125.768C591.326 124.461 591.769 123.493 592.353 122.863C592.936 122.209 593.566 121.766 594.243 121.533C594.919 121.299 595.748 121.183 596.728 121.183C598.781 121.183 601.441 121.486 604.708 122.093V123.983C601.464 123.843 598.804 123.773 596.728 123.773C596.098 123.773 595.608 123.831 595.258 123.948C594.908 124.064 594.546 124.344 594.173 124.788C593.823 125.208 593.566 125.908 593.403 126.888C593.263 127.868 593.193 129.163 593.193 130.773C593.193 133.386 593.449 135.171 593.963 136.128C594.499 137.061 595.421 137.528 596.728 137.528C597.684 137.528 598.839 137.504 600.193 137.458C601.569 137.388 602.713 137.318 603.623 137.248L604.953 137.143V139.103C602.713 139.733 599.971 140.071 596.728 140.118C595.771 140.118 594.954 140.001 594.278 139.768C593.624 139.534 592.994 139.103 592.388 138.473C591.804 137.819 591.361 136.839 591.058 135.533C590.754 134.226 590.603 132.593 590.603 130.633ZM609.503 139.943V112.503H612.093V123.528C612.163 123.504 612.419 123.364 612.863 123.108C613.306 122.828 613.574 122.664 613.668 122.618C613.784 122.571 614.041 122.443 614.438 122.233C614.834 121.999 615.114 121.859 615.278 121.813C615.441 121.766 615.709 121.673 616.083 121.533C616.456 121.393 616.759 121.299 616.993 121.253C617.249 121.206 617.553 121.159 617.903 121.113C618.253 121.066 618.603 121.043 618.953 121.043C620.726 121.043 622.126 121.626 623.153 122.793C624.179 123.959 624.693 125.359 624.693 126.993V139.943H622.103V126.993C622.103 125.873 621.811 125.033 621.228 124.473C620.668 123.913 619.909 123.633 618.953 123.633C618.066 123.633 617.226 123.726 616.433 123.913C615.639 124.099 614.998 124.298 614.508 124.508C614.041 124.694 613.236 125.068 612.093 125.628V139.943H609.503ZM629.241 130.563C629.241 128.509 629.381 126.864 629.661 125.628C629.941 124.368 630.442 123.423 631.166 122.793C631.912 122.139 632.729 121.719 633.616 121.533C634.526 121.323 635.774 121.218 637.361 121.218C638.644 121.218 639.647 121.276 640.371 121.393C641.094 121.509 641.806 121.778 642.506 122.198C643.206 122.618 643.707 123.283 644.011 124.193C644.314 125.103 644.466 126.304 644.466 127.798C644.466 130.644 642.867 132.068 639.671 132.068H631.831C631.831 134.238 632.076 135.696 632.566 136.443C633.056 137.166 633.989 137.528 635.366 137.528C635.529 137.528 635.774 137.528 636.101 137.528C636.427 137.528 636.672 137.528 636.836 137.528C640.102 137.528 642.529 137.411 644.116 137.178V139.138C641.806 139.791 638.889 140.118 635.366 140.118C633.009 140.118 631.399 139.441 630.536 138.088C629.672 136.734 629.241 134.226 629.241 130.563ZM631.831 129.513H639.671C641.141 129.513 641.876 128.941 641.876 127.798C641.876 126.001 641.607 124.893 641.071 124.473C640.557 124.029 639.332 123.808 637.396 123.808C636.579 123.808 635.972 123.819 635.576 123.843C635.202 123.866 634.747 123.936 634.211 124.053C633.697 124.146 633.324 124.309 633.091 124.543C632.881 124.776 632.647 125.103 632.391 125.523C632.157 125.943 632.006 126.479 631.936 127.133C631.866 127.786 631.831 128.579 631.831 129.513ZM648.329 127.413V125.803C648.329 124.286 648.703 123.143 649.449 122.373C650.196 121.579 651.433 121.183 653.159 121.183C655.376 121.183 658.421 121.369 662.294 121.743V123.738H653.159C652.623 123.738 652.191 123.784 651.864 123.878C651.538 123.971 651.304 124.134 651.164 124.368C651.048 124.578 650.978 124.776 650.954 124.963C650.931 125.149 650.919 125.429 650.919 125.803V127.413C650.919 127.879 650.966 128.253 651.059 128.533C651.176 128.813 651.351 129.011 651.584 129.128C651.818 129.244 652.039 129.326 652.249 129.373C652.459 129.396 652.763 129.408 653.159 129.408H658.689C660.159 129.408 661.279 129.828 662.049 130.668C662.843 131.484 663.239 132.569 663.239 133.923V135.638C663.239 137.364 662.819 138.543 661.979 139.173C661.139 139.803 660.043 140.118 658.689 140.118C656.519 140.118 653.323 139.896 649.099 139.453V137.528H658.689C658.736 137.528 658.783 137.528 658.829 137.528C658.993 137.528 659.156 137.516 659.319 137.493C659.483 137.446 659.669 137.364 659.879 137.248C660.113 137.131 660.299 136.933 660.439 136.653C660.579 136.373 660.649 136.034 660.649 135.638V133.923C660.649 133.269 660.498 132.791 660.194 132.488C659.914 132.161 659.413 131.998 658.689 131.998H653.159C651.456 131.998 650.219 131.671 649.449 131.018C648.703 130.364 648.329 129.163 648.329 127.413ZM666.384 123.913V121.953L669.849 121.323L670.479 116.143H672.439V121.323H677.864V123.913H672.439V133.293C672.439 134.716 672.603 135.708 672.929 136.268C673.256 136.804 673.758 137.154 674.434 137.318C676.348 137.808 677.386 138.053 677.549 138.053V139.908H674.469C671.389 139.908 669.849 137.703 669.849 133.293V123.913H666.384ZM682.062 139.943V121.358H683.882L684.652 123.703C684.769 123.633 685.06 123.458 685.527 123.178C686.017 122.898 686.332 122.723 686.472 122.653C686.635 122.559 686.927 122.408 687.347 122.198C687.767 121.988 688.094 121.848 688.327 121.778C688.584 121.684 688.899 121.579 689.272 121.463C689.669 121.346 690.054 121.264 690.427 121.218C690.8 121.171 691.185 121.148 691.582 121.148C692.935 121.148 693.799 121.241 694.172 121.428V123.983C693.612 123.843 692.749 123.773 691.582 123.773C690.695 123.773 689.844 123.866 689.027 124.053C688.234 124.239 687.592 124.438 687.102 124.648C686.635 124.858 685.819 125.243 684.652 125.803V139.943H682.062ZM697.314 135.533V133.398C697.314 131.974 697.723 130.843 698.539 130.003C699.379 129.163 700.523 128.743 701.969 128.743C704.279 128.743 706.193 128.743 707.709 128.743C708.339 128.743 708.829 128.743 709.179 128.743C709.553 128.743 709.739 128.743 709.739 128.743C709.739 128.066 709.739 127.494 709.739 127.028C709.739 126.934 709.739 126.853 709.739 126.783C709.739 126.713 709.739 126.654 709.739 126.608C709.739 126.538 709.739 126.491 709.739 126.468C709.739 126.421 709.739 126.398 709.739 126.398C709.739 124.484 708.783 123.528 706.869 123.528C704.769 123.528 701.783 123.668 697.909 123.948V122.058C700.266 121.404 703.288 121.054 706.974 121.008C706.998 121.008 707.033 121.008 707.079 121.008C708.619 121.008 709.879 121.463 710.859 122.373C711.839 123.259 712.329 124.601 712.329 126.398V139.943H710.404L709.739 137.703L709.214 137.948C708.888 138.111 708.444 138.321 707.884 138.578C707.324 138.811 706.718 139.056 706.064 139.313C705.411 139.546 704.711 139.744 703.964 139.908C703.218 140.071 702.553 140.153 701.969 140.153C700.639 140.153 699.531 139.744 698.644 138.928C697.758 138.111 697.314 136.979 697.314 135.533ZM699.904 135.358C699.904 136.828 700.593 137.563 701.969 137.563C702.809 137.563 703.871 137.411 705.154 137.108C706.461 136.804 707.558 136.513 708.444 136.233L709.739 135.778V130.773L701.969 131.333C701.269 131.403 700.744 131.648 700.394 132.068C700.068 132.488 699.904 133.001 699.904 133.608V135.358ZM715.814 123.913V121.953L719.279 121.323L719.909 116.143H721.869V121.323H727.294V123.913H721.869V133.293C721.869 134.716 722.032 135.708 722.359 136.268C722.685 136.804 723.187 137.154 723.864 137.318C725.777 137.808 726.815 138.053 726.979 138.053V139.908H723.899C720.819 139.908 719.279 137.703 719.279 133.293V123.913H715.814ZM731.141 130.913C731.141 127.156 731.736 124.601 732.926 123.248C734.116 121.871 736.251 121.183 739.331 121.183C742.458 121.183 744.605 121.883 745.771 123.283C746.938 124.659 747.521 127.203 747.521 130.913C747.521 134.389 746.938 136.793 745.771 138.123C744.605 139.453 742.458 140.118 739.331 140.118C736.251 140.118 734.116 139.429 732.926 138.053C731.736 136.676 731.141 134.296 731.141 130.913ZM733.731 130.913C733.731 132.429 733.836 133.643 734.046 134.553C734.28 135.463 734.665 136.128 735.201 136.548C735.761 136.968 736.321 137.236 736.881 137.353C737.465 137.469 738.281 137.528 739.331 137.528C740.405 137.528 741.233 137.469 741.816 137.353C742.423 137.236 742.983 136.968 743.496 136.548C744.033 136.104 744.406 135.439 744.616 134.553C744.826 133.643 744.931 132.429 744.931 130.913C744.931 129.256 744.838 127.949 744.651 126.993C744.488 126.036 744.15 125.324 743.636 124.858C743.123 124.368 742.563 124.064 741.956 123.948C741.373 123.831 740.498 123.773 739.331 123.773C738.445 123.773 737.745 123.808 737.231 123.878C736.718 123.948 736.205 124.111 735.691 124.368C735.178 124.624 734.793 125.009 734.536 125.523C734.303 126.036 734.105 126.736 733.941 127.623C733.801 128.486 733.731 129.583 733.731 130.913ZM752.434 139.943V121.358H754.254L755.024 123.703C755.14 123.633 755.432 123.458 755.899 123.178C756.389 122.898 756.704 122.723 756.844 122.653C757.007 122.559 757.299 122.408 757.719 122.198C758.139 121.988 758.465 121.848 758.699 121.778C758.955 121.684 759.27 121.579 759.644 121.463C760.04 121.346 760.425 121.264 760.799 121.218C761.172 121.171 761.557 121.148 761.954 121.148C763.307 121.148 764.17 121.241 764.544 121.428V123.983C763.984 123.843 763.12 123.773 761.954 123.773C761.067 123.773 760.215 123.866 759.399 124.053C758.605 124.239 757.964 124.438 757.474 124.648C757.007 124.858 756.19 125.243 755.024 125.803V139.943H752.434ZM769.261 139.138V137.143C769.261 136.559 769.541 136.268 770.101 136.268H771.956C772.539 136.268 772.831 136.559 772.831 137.143V139.138C772.831 139.674 772.539 139.943 771.956 139.943H770.101C769.541 139.943 769.261 139.674 769.261 139.138Z" fill="#939393"/>
<defs>
<filter id="filter0_d_62_1670" x="164.929" y="20.5278" width="49.7016" height="49.7015" filterUnits="userSpaceOnUse" color-interpolation-filters="sRGB">
<feFlood flood-opacity="0" result="BackgroundImageFix"/>
<feColorMatrix in="SourceAlpha" type="matrix" values="0 0 0 0 0 0 0 0 0 0 0 0 0 0 0 0 0 0 127 0" result="hardAlpha"/>
<feOffset/>
<feGaussianBlur stdDeviation="7.57098"/>
<feComposite in2="hardAlpha" operator="out"/>
<feColorMatrix type="matrix" values="0 0 0 0 0.509804 0 0 0 0 0.890196 0 0 0 0 0.917647 0 0 0 0.75 0"/>
<feBlend mode="normal" in2="BackgroundImageFix" result="effect1_dropShadow_62_1670"/>
<feBlend mode="normal" in="SourceGraphic" in2="effect1_dropShadow_62_1670" result="shape"/>
</filter>
<filter id="filter1_d_62_1670" x="166.143" y="64.8485" width="48.488" height="48.488" filterUnits="userSpaceOnUse" color-interpolation-filters="sRGB">
<feFlood flood-opacity="0" result="BackgroundImageFix"/>
<feColorMatrix in="SourceAlpha" type="matrix" values="0 0 0 0 0 0 0 0 0 0 0 0 0 0 0 0 0 0 127 0" result="hardAlpha"/>
<feOffset/>
<feGaussianBlur stdDeviation="7.57098"/>
<feComposite in2="hardAlpha" operator="out"/>
<feColorMatrix type="matrix" values="0 0 0 0 0.509804 0 0 0 0 0.890196 0 0 0 0 0.917647 0 0 0 0.75 0"/>
<feBlend mode="normal" in2="BackgroundImageFix" result="effect1_dropShadow_62_1670"/>
<feBlend mode="normal" in="SourceGraphic" in2="effect1_dropShadow_62_1670" result="shape"/>
</filter>
<filter id="filter2_d_62_1670" x="164.929" y="107.955" width="49.7016" height="49.7015" filterUnits="userSpaceOnUse" color-interpolation-filters="sRGB">
<feFlood flood-opacity="0" result="BackgroundImageFix"/>
<feColorMatrix in="SourceAlpha" type="matrix" values="0 0 0 0 0 0 0 0 0 0 0 0 0 0 0 0 0 0 127 0" result="hardAlpha"/>
<feOffset/>
<feGaussianBlur stdDeviation="7.57098"/>
<feComposite in2="hardAlpha" operator="out"/>
<feColorMatrix type="matrix" values="0 0 0 0 0.509804 0 0 0 0 0.890196 0 0 0 0 0.917647 0 0 0 0.75 0"/>
<feBlend mode="normal" in2="BackgroundImageFix" result="effect1_dropShadow_62_1670"/>
<feBlend mode="normal" in="SourceGraphic" in2="effect1_dropShadow_62_1670" result="shape"/>
</filter>
<linearGradient id="paint0_linear_62_1670" x1="78.7562" y1="6.92456" x2="78.7562" y2="167.731" gradientUnits="userSpaceOnUse">
<stop stop-color="#EBE5D7"/>
<stop offset="1" stop-color="#E0CDA5"/>
</linearGradient>
</defs>
</svg>
