<svg width="534" height="408" viewBox="0 0 534 408" fill="none" xmlns="http://www.w3.org/2000/svg">
<g filter="url(#filter0_d_62_1669)">
<circle cx="383.352" cy="58.9921" r="12.6215" fill="#82E3EA"/>
</g>
<g filter="url(#filter1_d_62_1669)">
<circle cx="384.141" cy="115.82" r="11.8326" fill="#82E3EA"/>
</g>
<g filter="url(#filter2_d_62_1669)">
<circle cx="383.352" cy="172.648" r="12.6215" fill="#82E3EA"/>
</g>
<path d="M301.451 115.506L380.196 115.506" stroke="#82E3EA" stroke-width="7.00162" stroke-linecap="round"/>
<path d="M382.563 58.8435H360.728C357.155 58.8435 353.852 60.7499 352.066 63.8447L325.049 110.639C323.262 113.734 319.96 115.64 316.387 115.64H300.951" stroke="#82E3EA" stroke-width="7.00162" stroke-linecap="round"/>
<path d="M382.563 172.87H360.75C357.165 172.87 353.854 170.951 352.071 167.84L325.044 120.67C323.261 117.559 319.95 115.64 316.365 115.64H300.951" stroke="#82E3EA" stroke-width="7.00162" stroke-linecap="round"/>
<mask id="mask0_62_1669" style="mask-type:alpha" maskUnits="userSpaceOnUse" x="136" y="0" width="203" height="220">
<path d="M331.658 52.012L312.154 85.0196V145.534L336.159 183.542L338.66 219.551H140.614C133.412 219.551 137.613 73.1836 140.614 0H338.66L331.658 52.012Z" fill="#FF3838"/>
</mask>
<g mask="url(#mask0_62_1669)">
<path d="M223.293 10.9031C246.82 6.35385 271.197 10.0262 292.338 21.3055C313.48 32.5848 330.105 50.7858 339.427 72.8601L327.449 77.9197L315.47 82.9783C308.467 66.396 295.979 52.7228 280.097 44.2498C264.216 35.7769 245.904 33.018 228.231 36.4353C210.558 39.8528 194.595 49.2395 183.017 63.0222C171.439 76.8051 164.949 94.1485 164.632 112.146C164.316 130.144 170.193 147.704 181.28 161.886C192.366 176.067 207.989 186.008 225.531 190.045C243.073 194.081 261.47 191.967 277.639 184.057C293.809 176.148 306.771 162.922 314.352 146.596L326.145 152.073L337.939 157.551C327.846 179.284 310.592 196.889 289.067 207.419C267.542 217.948 243.051 220.762 219.699 215.388C196.347 210.015 175.55 196.78 160.792 177.902C146.033 159.024 138.209 135.648 138.63 111.689C139.052 87.7304 147.692 64.6426 163.105 46.2947C178.518 27.9472 199.767 15.4525 223.293 10.9031ZM198.325 89.5818C200.725 85.3146 203.259 86.1151 211.527 93.9832C215.661 97.984 221.129 102.918 223.53 104.919C225.797 107.053 227.797 109.72 227.797 110.921C227.795 113.59 204.459 136.126 201.792 136.126C199.391 136.125 196.724 131.192 197.924 129.191C198.458 128.258 202.725 123.99 207.393 119.589L215.928 111.72L206.46 102.118C197.791 93.4494 196.991 92.1157 198.325 89.5818ZM236.334 128.658C237 127.058 239.934 126.791 252.737 127.057L268.474 127.458V135.46H252.47C238.068 135.46 236.466 135.193 236.066 133.059C235.799 131.726 235.933 129.725 236.334 128.658Z" fill="url(#paint0_linear_62_1669)"/>
</g>
<path d="M20.0753 278.551C11.8087 281.084 4.742 288.551 1.942 297.351C0.20867 302.951 -0.19133 308.284 0.0753365 320.284C0.742003 339.884 3.67534 346.817 13.942 353.217L20.342 357.217L45.542 357.617L70.6087 358.151V352.684V347.217H57.0087C49.4087 347.084 38.742 346.551 33.2753 345.884C24.6087 344.951 22.8753 344.284 19.6753 340.684C14.6087 334.951 12.8753 327.217 13.6753 313.617C14.342 300.551 16.8753 294.817 23.4087 290.951C26.742 288.951 31.4087 288.417 47.4087 288.017C58.342 287.751 67.6753 287.351 68.342 287.351C68.8753 287.217 69.2753 284.817 69.2753 281.884V276.551L47.6753 276.684C33.2753 276.684 23.942 277.351 20.0753 278.551Z" fill="#EAE3D4"/>
<path d="M502.609 289.084V297.751L498.342 298.151C494.475 298.551 493.942 299.084 493.542 302.817C493.142 306.684 493.409 307.084 497.542 307.484L501.942 307.884L502.609 328.017C503.142 345.884 503.542 348.684 505.942 351.217C510.342 356.151 515.275 357.884 524.609 357.884H533.275V352.551V347.217H526.875C523.275 347.217 519.275 346.284 517.542 345.084C514.742 343.217 514.609 342.151 514.609 325.084V307.217H523.275H531.942V302.551V297.884H523.275H514.609V289.217V280.551H508.609H502.609V289.084Z" fill="#EAE3D4"/>
<path d="M92.4755 299.351C86.8755 300.951 80.4755 308.417 78.4755 315.484C76.0755 324.417 77.5422 340.284 81.2755 346.951C86.4755 356.284 92.3422 358.151 113.009 357.617C129.542 357.217 130.342 357.084 135.142 353.351C143.142 347.351 146.609 335.217 144.742 320.017C143.542 310.684 139.542 304.684 131.942 300.817C126.876 298.284 124.076 297.884 111.276 298.017C103.276 298.017 94.7422 298.684 92.4755 299.351ZM123.142 309.084C130.342 312.017 131.942 315.617 131.942 328.151C131.942 338.417 131.676 339.484 128.209 343.351C124.609 347.351 123.676 347.617 113.676 348.284C105.409 348.684 101.942 348.417 98.2089 346.551C91.4089 343.351 88.3422 334.684 89.8089 322.684C90.8755 314.817 95.0089 309.217 100.342 308.151C107.009 306.817 119.009 307.351 123.142 309.084Z" fill="#EAE3D4"/>
<path d="M147.009 300.151C148.875 306.417 171.009 354.817 172.742 356.551C173.942 357.751 177.142 358.551 180.742 358.551C187.809 358.551 190.875 355.617 195.142 344.951C196.609 341.351 201.542 330.017 206.209 319.617C210.742 309.084 214.609 299.884 214.609 299.217C214.609 298.284 212.209 297.884 208.342 298.151L202.209 298.551L196.342 312.551C193.142 320.284 188.609 331.217 186.342 336.951C184.075 342.684 181.675 347.084 181.009 346.951C180.209 346.684 175.142 335.751 169.542 322.551L159.275 298.551L152.742 298.151C147.009 297.751 146.342 298.017 147.009 300.151Z" fill="#EAE3D4"/>
<path d="M229.408 300.284C220.742 304.551 219.275 308.151 218.875 326.151C218.342 345.351 219.942 350.551 227.942 355.084C232.742 357.751 234.608 357.884 254.875 357.617L276.608 357.217L277.008 352.817C277.408 348.951 277.142 348.551 273.675 348.417C237.408 347.484 236.742 347.351 233.542 343.751C231.408 341.351 230.608 338.951 230.875 336.017L231.275 331.884L252.875 331.217C278.075 330.417 278.742 330.151 279.542 318.951C280.208 310.151 277.142 303.751 270.608 300.284C264.075 296.817 236.075 296.817 229.408 300.284ZM261.942 308.551C266.075 310.151 268.475 315.617 266.608 319.351C265.275 321.617 263.675 321.884 247.942 321.884C230.742 321.884 230.608 321.884 230.608 318.817C230.608 314.951 234.075 310.017 237.808 308.551C241.675 306.951 257.675 306.951 261.942 308.551Z" fill="#EAE3D4"/>
<path d="M297.942 299.084C296.475 299.751 294.075 301.617 292.609 303.217C290.075 305.884 289.942 308.017 289.942 331.751V357.217H295.942H301.942L302.609 333.217L303.275 309.217L307.275 308.417C313.942 306.951 325.942 307.084 330.475 308.684C333.009 309.617 335.275 311.617 336.075 313.484C336.742 315.217 337.275 326.017 337.275 337.351V357.884H343.275H349.275V334.817C349.275 300.017 347.409 297.884 317.942 298.017C308.475 298.017 299.409 298.551 297.942 299.084Z" fill="#EAE3D4"/>
<path d="M365.275 302.417V306.951L383.275 307.484C402.875 307.884 404.342 308.417 405.809 316.017L406.742 320.151L388.075 320.817C367.142 321.617 363.809 322.817 360.475 330.551C356.475 340.284 359.275 352.151 366.609 355.884C370.075 357.751 374.342 358.017 391.409 357.617C419.142 357.084 417.942 358.284 417.942 329.884C417.942 310.551 417.675 308.417 415.142 304.951C410.475 298.551 407.542 297.884 385.675 297.884H365.275V302.417ZM406.342 337.217C407.009 346.284 404.742 347.751 390.742 348.417C375.542 348.951 371.942 347.217 371.942 339.484C371.942 331.617 373.275 331.084 390.609 331.484L405.942 331.884L406.342 337.217Z" fill="#EAE3D4"/>
<path d="M434.475 299.884C428.875 302.951 427.942 308.151 427.942 334.017V357.884H433.942H439.942V335.217C439.942 307.351 439.942 307.217 455.142 307.217C467.942 307.217 472.742 308.951 474.475 314.151C475.275 316.417 475.942 327.217 475.942 338.017V357.884H481.942H487.942V334.817C487.942 299.884 486.209 297.884 455.942 297.884C442.875 298.017 437.009 298.551 434.475 299.884Z" fill="#EAE3D4"/>
<path d="M1.575 374.521V371.931H19.355V374.521H11.655V397.551H9.065V374.521H1.575ZM23.0344 388.171C23.0344 386.117 23.1744 384.472 23.4544 383.236C23.7344 381.976 24.236 381.031 24.9594 380.401C25.706 379.747 26.5227 379.327 27.4094 379.141C28.3194 378.931 29.5677 378.826 31.1544 378.826C32.4377 378.826 33.441 378.884 34.1644 379.001C34.8877 379.117 35.5994 379.386 36.2994 379.806C36.9994 380.226 37.501 380.891 37.8044 381.801C38.1077 382.711 38.2594 383.912 38.2594 385.406C38.2594 388.252 36.661 389.676 33.4644 389.676H25.6244C25.6244 391.846 25.8694 393.304 26.3594 394.051C26.8494 394.774 27.7827 395.136 29.1594 395.136C29.3227 395.136 29.5677 395.136 29.8944 395.136C30.221 395.136 30.466 395.136 30.6294 395.136C33.896 395.136 36.3227 395.019 37.9094 394.786V396.746C35.5994 397.399 32.6827 397.726 29.1594 397.726C26.8027 397.726 25.1927 397.049 24.3294 395.696C23.466 394.342 23.0344 391.834 23.0344 388.171ZM25.6244 387.121H33.4644C34.9344 387.121 35.6694 386.549 35.6694 385.406C35.6694 383.609 35.401 382.501 34.8644 382.081C34.351 381.637 33.126 381.416 31.1894 381.416C30.3727 381.416 29.766 381.427 29.3694 381.451C28.996 381.474 28.541 381.544 28.0044 381.661C27.491 381.754 27.1177 381.917 26.8844 382.151C26.6744 382.384 26.441 382.711 26.1844 383.131C25.951 383.551 25.7994 384.087 25.7294 384.741C25.6594 385.394 25.6244 386.187 25.6244 387.121ZM42.823 397.551V378.966H44.643L45.413 381.311C45.5297 381.241 45.8214 381.066 46.288 380.786C46.778 380.506 47.093 380.331 47.233 380.261C47.3964 380.167 47.688 380.016 48.108 379.806C48.528 379.596 48.8547 379.456 49.088 379.386C49.3447 379.292 49.6597 379.187 50.033 379.071C50.4297 378.954 50.8147 378.872 51.188 378.826C51.5614 378.779 51.9464 378.756 52.343 378.756C53.6964 378.756 54.5597 378.849 54.933 379.036V381.591C54.373 381.451 53.5097 381.381 52.343 381.381C51.4564 381.381 50.6047 381.474 49.788 381.661C48.9947 381.847 48.353 382.046 47.863 382.256C47.3964 382.466 46.5797 382.851 45.413 383.411V397.551H42.823ZM58.7754 397.551V378.966H60.5954L61.3654 381.206C61.5054 381.112 61.7854 380.949 62.2054 380.716C62.6487 380.459 62.9521 380.284 63.1154 380.191C63.3021 380.074 63.5821 379.922 63.9554 379.736C64.3521 379.549 64.6671 379.421 64.9004 379.351C65.1571 379.257 65.4604 379.152 65.8104 379.036C66.1604 378.919 66.5104 378.849 66.8604 378.826C67.2337 378.779 67.6071 378.756 67.9804 378.756C69.1471 378.756 70.1971 379.001 71.1304 379.491C72.0637 379.981 72.7287 380.646 73.1254 381.486C75.3187 379.666 77.8154 378.756 80.6154 378.756C82.2487 378.756 83.6137 379.316 84.7104 380.436C85.8071 381.556 86.3554 382.991 86.3554 384.741V397.551H83.7654V384.741C83.7654 383.714 83.4621 382.897 82.8554 382.291C82.2721 381.661 81.5254 381.346 80.6154 381.346C79.2154 381.346 78.0021 381.486 76.9754 381.766C75.9721 382.046 74.8987 382.559 73.7554 383.306V384.671V397.551H71.1654V384.741C71.1654 383.714 70.8621 382.897 70.2554 382.291C69.6721 381.661 68.9137 381.346 67.9804 381.346C67.1171 381.346 66.3004 381.439 65.5304 381.626C64.7837 381.812 64.2004 381.999 63.7804 382.186C63.3604 382.349 62.5554 382.722 61.3654 383.306V397.551H58.7754ZM90.9207 375.956V374.066C90.9207 373.482 91.2007 373.191 91.7607 373.191H93.5107C94.0474 373.191 94.3157 373.482 94.3157 374.066V375.956C94.3157 376.492 94.0474 376.761 93.5107 376.761H91.7607C91.2007 376.761 90.9207 376.492 90.9207 375.956ZM91.2707 397.551V378.966H93.8607V397.551H91.2707ZM99.225 397.551V378.966H101.045L101.815 381.136C101.885 381.112 102.142 380.972 102.585 380.716C103.028 380.436 103.297 380.272 103.39 380.226C103.507 380.179 103.763 380.051 104.16 379.841C104.557 379.607 104.837 379.467 105 379.421C105.163 379.374 105.432 379.281 105.805 379.141C106.178 379.001 106.482 378.907 106.715 378.861C106.972 378.814 107.275 378.767 107.625 378.721C107.975 378.674 108.325 378.651 108.675 378.651C110.448 378.651 111.848 379.234 112.875 380.401C113.902 381.567 114.415 382.967 114.415 384.601V397.551H111.825V384.601C111.825 383.504 111.533 382.676 110.95 382.116C110.367 381.532 109.608 381.241 108.675 381.241C107.788 381.241 106.948 381.334 106.155 381.521C105.362 381.707 104.72 381.906 104.23 382.116C103.763 382.302 102.958 382.676 101.815 383.236V397.551H99.225ZM118.613 393.141V391.006C118.613 389.582 119.021 388.451 119.838 387.611C120.678 386.771 121.821 386.351 123.268 386.351C125.578 386.351 127.491 386.351 129.008 386.351C129.638 386.351 130.128 386.351 130.478 386.351C130.851 386.351 131.038 386.351 131.038 386.351C131.038 385.674 131.038 385.102 131.038 384.636C131.038 384.542 131.038 384.461 131.038 384.391C131.038 384.321 131.038 384.262 131.038 384.216C131.038 384.146 131.038 384.099 131.038 384.076C131.038 384.029 131.038 384.006 131.038 384.006C131.038 382.092 130.081 381.136 128.168 381.136C126.068 381.136 123.081 381.276 119.208 381.556V379.666C121.565 379.012 124.586 378.662 128.273 378.616C128.296 378.616 128.331 378.616 128.378 378.616C129.918 378.616 131.178 379.071 132.158 379.981C133.138 380.867 133.628 382.209 133.628 384.006V397.551H131.703L131.038 395.311L130.513 395.556C130.186 395.719 129.743 395.929 129.183 396.186C128.623 396.419 128.016 396.664 127.363 396.921C126.71 397.154 126.01 397.352 125.263 397.516C124.516 397.679 123.851 397.761 123.268 397.761C121.938 397.761 120.83 397.352 119.943 396.536C119.056 395.719 118.613 394.587 118.613 393.141ZM121.203 392.966C121.203 394.436 121.891 395.171 123.268 395.171C124.108 395.171 125.17 395.019 126.453 394.716C127.76 394.412 128.856 394.121 129.743 393.841L131.038 393.386V388.381L123.268 388.941C122.568 389.011 122.043 389.256 121.693 389.676C121.366 390.096 121.203 390.609 121.203 391.216V392.966ZM138.513 390.936V370.146H141.103V390.936C141.103 392.359 141.266 393.351 141.593 393.911C141.919 394.447 142.421 394.797 143.098 394.961C145.011 395.451 146.049 395.696 146.213 395.696V397.551H143.133C140.053 397.551 138.513 395.346 138.513 390.936ZM161.787 393.141V391.006C161.787 389.582 162.196 388.451 163.012 387.611C163.852 386.771 164.996 386.351 166.442 386.351C168.752 386.351 170.666 386.351 172.182 386.351C172.812 386.351 173.302 386.351 173.652 386.351C174.026 386.351 174.212 386.351 174.212 386.351C174.212 385.674 174.212 385.102 174.212 384.636C174.212 384.542 174.212 384.461 174.212 384.391C174.212 384.321 174.212 384.262 174.212 384.216C174.212 384.146 174.212 384.099 174.212 384.076C174.212 384.029 174.212 384.006 174.212 384.006C174.212 382.092 173.256 381.136 171.342 381.136C169.242 381.136 166.256 381.276 162.382 381.556V379.666C164.739 379.012 167.761 378.662 171.447 378.616C171.471 378.616 171.506 378.616 171.552 378.616C173.092 378.616 174.352 379.071 175.332 379.981C176.312 380.867 176.802 382.209 176.802 384.006V397.551H174.877L174.212 395.311L173.687 395.556C173.361 395.719 172.917 395.929 172.357 396.186C171.797 396.419 171.191 396.664 170.537 396.921C169.884 397.154 169.184 397.352 168.437 397.516C167.691 397.679 167.026 397.761 166.442 397.761C165.112 397.761 164.004 397.352 163.117 396.536C162.231 395.719 161.787 394.587 161.787 393.141ZM164.377 392.966C164.377 394.436 165.066 395.171 166.442 395.171C167.282 395.171 168.344 395.019 169.627 394.716C170.934 394.412 172.031 394.121 172.917 393.841L174.212 393.386V388.381L166.442 388.941C165.742 389.011 165.217 389.256 164.867 389.676C164.541 390.096 164.377 390.609 164.377 391.216V392.966ZM180.987 385.021V383.411C180.987 381.894 181.36 380.751 182.107 379.981C182.854 379.187 184.09 378.791 185.817 378.791C188.034 378.791 191.079 378.977 194.952 379.351V381.346H185.817C185.28 381.346 184.849 381.392 184.522 381.486C184.195 381.579 183.962 381.742 183.822 381.976C183.705 382.186 183.635 382.384 183.612 382.571C183.589 382.757 183.577 383.037 183.577 383.411V385.021C183.577 385.487 183.624 385.861 183.717 386.141C183.834 386.421 184.009 386.619 184.242 386.736C184.475 386.852 184.697 386.934 184.907 386.981C185.117 387.004 185.42 387.016 185.817 387.016H191.347C192.817 387.016 193.937 387.436 194.707 388.276C195.5 389.092 195.897 390.177 195.897 391.531V393.246C195.897 394.972 195.477 396.151 194.637 396.781C193.797 397.411 192.7 397.726 191.347 397.726C189.177 397.726 185.98 397.504 181.757 397.061V395.136H191.347C191.394 395.136 191.44 395.136 191.487 395.136C191.65 395.136 191.814 395.124 191.977 395.101C192.14 395.054 192.327 394.972 192.537 394.856C192.77 394.739 192.957 394.541 193.097 394.261C193.237 393.981 193.307 393.642 193.307 393.246V391.531C193.307 390.877 193.155 390.399 192.852 390.096C192.572 389.769 192.07 389.606 191.347 389.606H185.817C184.114 389.606 182.877 389.279 182.107 388.626C181.36 387.972 180.987 386.771 180.987 385.021ZM212.174 393.141V391.006C212.174 389.582 212.582 388.451 213.399 387.611C214.239 386.771 215.382 386.351 216.829 386.351C219.139 386.351 221.052 386.351 222.569 386.351C223.199 386.351 223.689 386.351 224.039 386.351C224.412 386.351 224.599 386.351 224.599 386.351C224.599 385.674 224.599 385.102 224.599 384.636C224.599 384.542 224.599 384.461 224.599 384.391C224.599 384.321 224.599 384.262 224.599 384.216C224.599 384.146 224.599 384.099 224.599 384.076C224.599 384.029 224.599 384.006 224.599 384.006C224.599 382.092 223.642 381.136 221.729 381.136C219.629 381.136 216.642 381.276 212.769 381.556V379.666C215.126 379.012 218.147 378.662 221.834 378.616C221.857 378.616 221.892 378.616 221.939 378.616C223.479 378.616 224.739 379.071 225.719 379.981C226.699 380.867 227.189 382.209 227.189 384.006V397.551H225.264L224.599 395.311L224.074 395.556C223.747 395.719 223.304 395.929 222.744 396.186C222.184 396.419 221.577 396.664 220.924 396.921C220.271 397.154 219.571 397.352 218.824 397.516C218.077 397.679 217.412 397.761 216.829 397.761C215.499 397.761 214.391 397.352 213.504 396.536C212.617 395.719 212.174 394.587 212.174 393.141ZM214.764 392.966C214.764 394.436 215.452 395.171 216.829 395.171C217.669 395.171 218.731 395.019 220.014 394.716C221.321 394.412 222.417 394.121 223.304 393.841L224.599 393.386V388.381L216.829 388.941C216.129 389.011 215.604 389.256 215.254 389.676C214.927 390.096 214.764 390.609 214.764 391.216V392.966ZM232.073 397.551V378.966H233.893L234.663 381.136C234.733 381.112 234.99 380.972 235.433 380.716C235.877 380.436 236.145 380.272 236.238 380.226C236.355 380.179 236.612 380.051 237.008 379.841C237.405 379.607 237.685 379.467 237.848 379.421C238.012 379.374 238.28 379.281 238.653 379.141C239.027 379.001 239.33 378.907 239.563 378.861C239.82 378.814 240.123 378.767 240.473 378.721C240.823 378.674 241.173 378.651 241.523 378.651C243.297 378.651 244.697 379.234 245.723 380.401C246.75 381.567 247.263 382.967 247.263 384.601V397.551H244.673V384.601C244.673 383.504 244.382 382.676 243.798 382.116C243.215 381.532 242.457 381.241 241.523 381.241C240.637 381.241 239.797 381.334 239.003 381.521C238.21 381.707 237.568 381.906 237.078 382.116C236.612 382.302 235.807 382.676 234.663 383.236V397.551H232.073ZM264.068 397.551L273.483 371.931H276.073L285.068 397.551H281.988L279.783 390.411H269.563L267.253 397.551H264.068ZM270.508 387.821H278.873L274.743 375.886L270.508 387.821ZM289.79 397.551V371.931H292.38V397.551H289.79ZM309.708 388.521C309.708 384.764 310.303 382.209 311.493 380.856C312.683 379.479 314.818 378.791 317.898 378.791C321.024 378.791 323.171 379.491 324.338 380.891C325.504 382.267 326.088 384.811 326.088 388.521C326.088 391.997 325.504 394.401 324.338 395.731C323.171 397.061 321.024 397.726 317.898 397.726C314.818 397.726 312.683 397.037 311.493 395.661C310.303 394.284 309.708 391.904 309.708 388.521ZM312.298 388.521C312.298 390.037 312.403 391.251 312.613 392.161C312.846 393.071 313.231 393.736 313.768 394.156C314.328 394.576 314.888 394.844 315.448 394.961C316.031 395.077 316.848 395.136 317.898 395.136C318.971 395.136 319.799 395.077 320.383 394.961C320.989 394.844 321.549 394.576 322.063 394.156C322.599 393.712 322.973 393.047 323.183 392.161C323.393 391.251 323.498 390.037 323.498 388.521C323.498 386.864 323.404 385.557 323.218 384.601C323.054 383.644 322.716 382.932 322.203 382.466C321.689 381.976 321.129 381.672 320.523 381.556C319.939 381.439 319.064 381.381 317.898 381.381C317.011 381.381 316.311 381.416 315.798 381.486C315.284 381.556 314.771 381.719 314.258 381.976C313.744 382.232 313.359 382.617 313.103 383.131C312.869 383.644 312.671 384.344 312.508 385.231C312.368 386.094 312.298 387.191 312.298 388.521ZM331 397.551V378.966H332.82L333.59 381.311C333.707 381.241 333.999 381.066 334.465 380.786C334.955 380.506 335.27 380.331 335.41 380.261C335.574 380.167 335.865 380.016 336.285 379.806C336.705 379.596 337.032 379.456 337.265 379.386C337.522 379.292 337.837 379.187 338.21 379.071C338.607 378.954 338.992 378.872 339.365 378.826C339.739 378.779 340.124 378.756 340.52 378.756C341.874 378.756 342.737 378.849 343.11 379.036V381.591C342.55 381.451 341.687 381.381 340.52 381.381C339.634 381.381 338.782 381.474 337.965 381.661C337.172 381.847 336.53 382.046 336.04 382.256C335.574 382.466 334.757 382.851 333.59 383.411V397.551H331ZM346.603 388.241C346.603 386.281 346.743 384.659 347.023 383.376C347.326 382.069 347.769 381.101 348.353 380.471C348.936 379.817 349.566 379.374 350.243 379.141C350.919 378.907 351.748 378.791 352.728 378.791C354.781 378.791 357.441 379.094 360.708 379.701V381.591C357.464 381.451 354.804 381.381 352.728 381.381C352.098 381.381 351.608 381.439 351.258 381.556C350.908 381.672 350.546 381.952 350.173 382.396C349.823 382.816 349.566 383.516 349.403 384.496C349.263 385.476 349.193 386.771 349.193 388.381C349.193 390.994 349.449 392.779 349.963 393.736C350.499 394.669 351.421 395.136 352.728 395.136C353.684 395.136 354.839 395.112 356.193 395.066C357.569 394.996 358.713 394.926 359.623 394.856L360.953 394.751V396.711C358.713 397.341 355.971 397.679 352.728 397.726C351.771 397.726 350.954 397.609 350.278 397.376C349.624 397.142 348.994 396.711 348.388 396.081C347.804 395.427 347.361 394.447 347.058 393.141C346.754 391.834 346.603 390.201 346.603 388.241ZM365.503 397.551V370.111H368.093V381.136C368.163 381.112 368.419 380.972 368.863 380.716C369.306 380.436 369.574 380.272 369.668 380.226C369.784 380.179 370.041 380.051 370.438 379.841C370.834 379.607 371.114 379.467 371.278 379.421C371.441 379.374 371.709 379.281 372.083 379.141C372.456 379.001 372.759 378.907 372.993 378.861C373.249 378.814 373.553 378.767 373.903 378.721C374.253 378.674 374.603 378.651 374.953 378.651C376.726 378.651 378.126 379.234 379.153 380.401C380.179 381.567 380.693 382.967 380.693 384.601V397.551H378.103V384.601C378.103 383.481 377.811 382.641 377.228 382.081C376.668 381.521 375.909 381.241 374.953 381.241C374.066 381.241 373.226 381.334 372.433 381.521C371.639 381.707 370.998 381.906 370.508 382.116C370.041 382.302 369.236 382.676 368.093 383.236V397.551H365.503ZM385.241 388.171C385.241 386.117 385.381 384.472 385.661 383.236C385.941 381.976 386.442 381.031 387.166 380.401C387.912 379.747 388.729 379.327 389.616 379.141C390.526 378.931 391.774 378.826 393.361 378.826C394.644 378.826 395.647 378.884 396.371 379.001C397.094 379.117 397.806 379.386 398.506 379.806C399.206 380.226 399.707 380.891 400.011 381.801C400.314 382.711 400.466 383.912 400.466 385.406C400.466 388.252 398.867 389.676 395.671 389.676H387.831C387.831 391.846 388.076 393.304 388.566 394.051C389.056 394.774 389.989 395.136 391.366 395.136C391.529 395.136 391.774 395.136 392.101 395.136C392.427 395.136 392.672 395.136 392.836 395.136C396.102 395.136 398.529 395.019 400.116 394.786V396.746C397.806 397.399 394.889 397.726 391.366 397.726C389.009 397.726 387.399 397.049 386.536 395.696C385.672 394.342 385.241 391.834 385.241 388.171ZM387.831 387.121H395.671C397.141 387.121 397.876 386.549 397.876 385.406C397.876 383.609 397.607 382.501 397.071 382.081C396.557 381.637 395.332 381.416 393.396 381.416C392.579 381.416 391.972 381.427 391.576 381.451C391.202 381.474 390.747 381.544 390.211 381.661C389.697 381.754 389.324 381.917 389.091 382.151C388.881 382.384 388.647 382.711 388.391 383.131C388.157 383.551 388.006 384.087 387.936 384.741C387.866 385.394 387.831 386.187 387.831 387.121ZM404.329 385.021V383.411C404.329 381.894 404.703 380.751 405.449 379.981C406.196 379.187 407.433 378.791 409.159 378.791C411.376 378.791 414.421 378.977 418.294 379.351V381.346H409.159C408.623 381.346 408.191 381.392 407.864 381.486C407.538 381.579 407.304 381.742 407.164 381.976C407.048 382.186 406.978 382.384 406.954 382.571C406.931 382.757 406.919 383.037 406.919 383.411V385.021C406.919 385.487 406.966 385.861 407.059 386.141C407.176 386.421 407.351 386.619 407.584 386.736C407.818 386.852 408.039 386.934 408.249 386.981C408.459 387.004 408.763 387.016 409.159 387.016H414.689C416.159 387.016 417.279 387.436 418.049 388.276C418.843 389.092 419.239 390.177 419.239 391.531V393.246C419.239 394.972 418.819 396.151 417.979 396.781C417.139 397.411 416.043 397.726 414.689 397.726C412.519 397.726 409.323 397.504 405.099 397.061V395.136H414.689C414.736 395.136 414.783 395.136 414.829 395.136C414.993 395.136 415.156 395.124 415.319 395.101C415.483 395.054 415.669 394.972 415.879 394.856C416.113 394.739 416.299 394.541 416.439 394.261C416.579 393.981 416.649 393.642 416.649 393.246V391.531C416.649 390.877 416.498 390.399 416.194 390.096C415.914 389.769 415.413 389.606 414.689 389.606H409.159C407.456 389.606 406.219 389.279 405.449 388.626C404.703 387.972 404.329 386.771 404.329 385.021ZM422.384 381.521V379.561L425.849 378.931L426.479 373.751H428.439V378.931H433.864V381.521H428.439V390.901C428.439 392.324 428.603 393.316 428.929 393.876C429.256 394.412 429.758 394.762 430.434 394.926C432.348 395.416 433.386 395.661 433.549 395.661V397.516H430.469C427.389 397.516 425.849 395.311 425.849 390.901V381.521H422.384ZM438.062 397.551V378.966H439.882L440.652 381.311C440.769 381.241 441.06 381.066 441.527 380.786C442.017 380.506 442.332 380.331 442.472 380.261C442.635 380.167 442.927 380.016 443.347 379.806C443.767 379.596 444.094 379.456 444.327 379.386C444.584 379.292 444.899 379.187 445.272 379.071C445.669 378.954 446.054 378.872 446.427 378.826C446.8 378.779 447.185 378.756 447.582 378.756C448.935 378.756 449.799 378.849 450.172 379.036V381.591C449.612 381.451 448.749 381.381 447.582 381.381C446.695 381.381 445.844 381.474 445.027 381.661C444.234 381.847 443.592 382.046 443.102 382.256C442.635 382.466 441.819 382.851 440.652 383.411V397.551H438.062ZM453.314 393.141V391.006C453.314 389.582 453.723 388.451 454.539 387.611C455.379 386.771 456.523 386.351 457.969 386.351C460.279 386.351 462.193 386.351 463.709 386.351C464.339 386.351 464.829 386.351 465.179 386.351C465.553 386.351 465.739 386.351 465.739 386.351C465.739 385.674 465.739 385.102 465.739 384.636C465.739 384.542 465.739 384.461 465.739 384.391C465.739 384.321 465.739 384.262 465.739 384.216C465.739 384.146 465.739 384.099 465.739 384.076C465.739 384.029 465.739 384.006 465.739 384.006C465.739 382.092 464.783 381.136 462.869 381.136C460.769 381.136 457.783 381.276 453.909 381.556V379.666C456.266 379.012 459.288 378.662 462.974 378.616C462.998 378.616 463.033 378.616 463.079 378.616C464.619 378.616 465.879 379.071 466.859 379.981C467.839 380.867 468.329 382.209 468.329 384.006V397.551H466.404L465.739 395.311L465.214 395.556C464.888 395.719 464.444 395.929 463.884 396.186C463.324 396.419 462.718 396.664 462.064 396.921C461.411 397.154 460.711 397.352 459.964 397.516C459.218 397.679 458.553 397.761 457.969 397.761C456.639 397.761 455.531 397.352 454.644 396.536C453.758 395.719 453.314 394.587 453.314 393.141ZM455.904 392.966C455.904 394.436 456.593 395.171 457.969 395.171C458.809 395.171 459.871 395.019 461.154 394.716C462.461 394.412 463.558 394.121 464.444 393.841L465.739 393.386V388.381L457.969 388.941C457.269 389.011 456.744 389.256 456.394 389.676C456.068 390.096 455.904 390.609 455.904 391.216V392.966ZM471.814 381.521V379.561L475.279 378.931L475.909 373.751H477.869V378.931H483.294V381.521H477.869V390.901C477.869 392.324 478.032 393.316 478.359 393.876C478.685 394.412 479.187 394.762 479.864 394.926C481.777 395.416 482.815 395.661 482.979 395.661V397.516H479.899C476.819 397.516 475.279 395.311 475.279 390.901V381.521H471.814ZM487.141 388.521C487.141 384.764 487.736 382.209 488.926 380.856C490.116 379.479 492.251 378.791 495.331 378.791C498.458 378.791 500.605 379.491 501.771 380.891C502.938 382.267 503.521 384.811 503.521 388.521C503.521 391.997 502.938 394.401 501.771 395.731C500.605 397.061 498.458 397.726 495.331 397.726C492.251 397.726 490.116 397.037 488.926 395.661C487.736 394.284 487.141 391.904 487.141 388.521ZM489.731 388.521C489.731 390.037 489.836 391.251 490.046 392.161C490.28 393.071 490.665 393.736 491.201 394.156C491.761 394.576 492.321 394.844 492.881 394.961C493.465 395.077 494.281 395.136 495.331 395.136C496.405 395.136 497.233 395.077 497.816 394.961C498.423 394.844 498.983 394.576 499.496 394.156C500.033 393.712 500.406 393.047 500.616 392.161C500.826 391.251 500.931 390.037 500.931 388.521C500.931 386.864 500.838 385.557 500.651 384.601C500.488 383.644 500.15 382.932 499.636 382.466C499.123 381.976 498.563 381.672 497.956 381.556C497.373 381.439 496.498 381.381 495.331 381.381C494.445 381.381 493.745 381.416 493.231 381.486C492.718 381.556 492.205 381.719 491.691 381.976C491.178 382.232 490.793 382.617 490.536 383.131C490.303 383.644 490.105 384.344 489.941 385.231C489.801 386.094 489.731 387.191 489.731 388.521ZM508.434 397.551V378.966H510.254L511.024 381.311C511.14 381.241 511.432 381.066 511.899 380.786C512.389 380.506 512.704 380.331 512.844 380.261C513.007 380.167 513.299 380.016 513.719 379.806C514.139 379.596 514.465 379.456 514.699 379.386C514.955 379.292 515.27 379.187 515.644 379.071C516.04 378.954 516.425 378.872 516.799 378.826C517.172 378.779 517.557 378.756 517.954 378.756C519.307 378.756 520.17 378.849 520.544 379.036V381.591C519.984 381.451 519.12 381.381 517.954 381.381C517.067 381.381 516.215 381.474 515.399 381.661C514.605 381.847 513.964 382.046 513.474 382.256C513.007 382.466 512.19 382.851 511.024 383.411V397.551H508.434ZM525.261 396.746V394.751C525.261 394.167 525.541 393.876 526.101 393.876H527.956C528.539 393.876 528.831 394.167 528.831 394.751V396.746C528.831 397.282 528.539 397.551 527.956 397.551H526.101C525.541 397.551 525.261 397.282 525.261 396.746Z" fill="#939393"/>
<defs>
<filter id="filter0_d_62_1669" x="351.046" y="26.6861" width="64.612" height="64.612" filterUnits="userSpaceOnUse" color-interpolation-filters="sRGB">
<feFlood flood-opacity="0" result="BackgroundImageFix"/>
<feColorMatrix in="SourceAlpha" type="matrix" values="0 0 0 0 0 0 0 0 0 0 0 0 0 0 0 0 0 0 127 0" result="hardAlpha"/>
<feOffset/>
<feGaussianBlur stdDeviation="9.84227"/>
<feComposite in2="hardAlpha" operator="out"/>
<feColorMatrix type="matrix" values="0 0 0 0 0.509804 0 0 0 0 0.890196 0 0 0 0 0.917647 0 0 0 0.75 0"/>
<feBlend mode="normal" in2="BackgroundImageFix" result="effect1_dropShadow_62_1669"/>
<feBlend mode="normal" in="SourceGraphic" in2="effect1_dropShadow_62_1669" result="shape"/>
</filter>
<filter id="filter1_d_62_1669" x="352.623" y="84.303" width="63.0344" height="63.0344" filterUnits="userSpaceOnUse" color-interpolation-filters="sRGB">
<feFlood flood-opacity="0" result="BackgroundImageFix"/>
<feColorMatrix in="SourceAlpha" type="matrix" values="0 0 0 0 0 0 0 0 0 0 0 0 0 0 0 0 0 0 127 0" result="hardAlpha"/>
<feOffset/>
<feGaussianBlur stdDeviation="9.84227"/>
<feComposite in2="hardAlpha" operator="out"/>
<feColorMatrix type="matrix" values="0 0 0 0 0.509804 0 0 0 0 0.890196 0 0 0 0 0.917647 0 0 0 0.75 0"/>
<feBlend mode="normal" in2="BackgroundImageFix" result="effect1_dropShadow_62_1669"/>
<feBlend mode="normal" in="SourceGraphic" in2="effect1_dropShadow_62_1669" result="shape"/>
</filter>
<filter id="filter2_d_62_1669" x="351.046" y="140.342" width="64.612" height="64.612" filterUnits="userSpaceOnUse" color-interpolation-filters="sRGB">
<feFlood flood-opacity="0" result="BackgroundImageFix"/>
<feColorMatrix in="SourceAlpha" type="matrix" values="0 0 0 0 0 0 0 0 0 0 0 0 0 0 0 0 0 0 127 0" result="hardAlpha"/>
<feOffset/>
<feGaussianBlur stdDeviation="9.84227"/>
<feComposite in2="hardAlpha" operator="out"/>
<feColorMatrix type="matrix" values="0 0 0 0 0.509804 0 0 0 0 0.890196 0 0 0 0 0.917647 0 0 0 0.75 0"/>
<feBlend mode="normal" in2="BackgroundImageFix" result="effect1_dropShadow_62_1669"/>
<feBlend mode="normal" in="SourceGraphic" in2="effect1_dropShadow_62_1669" result="shape"/>
</filter>
<linearGradient id="paint0_linear_62_1669" x1="239.021" y1="9.00195" x2="239.021" y2="218.05" gradientUnits="userSpaceOnUse">
<stop stop-color="#EBE5D7"/>
<stop offset="1" stop-color="#E0CDA5"/>
</linearGradient>
</defs>
</svg>
